1.9Hzlow3min_grf.mot
version=1
nRows=20
nColumns 19
inDegrees=yes
endheader
time	1_ground_force_vx	1_ground_force_vy	1_ground_force_vz	1_ground_force_px	1_ground_force_py	1_ground_force_pz	1_ground_torque_x	1_ground_torque_y	1_ground_torque_z	2_ground_force_vx	2_ground_force_vy	2_ground_force_vz	2_ground_force_px	2_ground_force_py	2_ground_force_pz	2_ground_torque_x	2_ground_torque_y	2_ground_torque_z
            3.751500	            0.000961	           -0.902705	            0.317127	           -0.233013	            0.005581	           -0.255695	            0.005693	            0.101609	            0.019252	           -9.929105	           11.402425	           -5.821071	           -0.019003	            0.005948	           -0.566939	            0.059752	           -0.068618	            0.035030
            3.752000	            0.367834	           -0.362230	            0.410247	           -0.233013	            0.005581	           -0.255695	            0.020407	           -0.018622	            0.090713	           -9.982018	           13.060260	           -6.002850	           -0.046617	            0.005922	           -0.587492	            0.101824	           -0.133224	            0.061233
            3.752500	            0.093217	           -0.903670	            0.546179	           -0.233013	            0.005581	           -0.255695	            0.108359	           -0.082786	           -0.071875	           -9.788555	           11.402932	           -5.821131	           -0.018351	            0.005937	           -0.563157	            0.046521	           -0.054194	            0.027665
            3.753000	            0.000620	           -0.902115	            0.179559	           -0.233013	            0.005581	           -0.255695	            0.161832	           -0.175748	            0.036473	          -10.072395	           12.139180	           -6.006095	           -0.025241	            0.005952	           -0.574215	            0.111724	           -0.134649	            0.066620
            3.753500	            0.092174	           -0.181034	            0.182423	           -0.233013	            0.005581	           -0.255695	            0.011035	           -0.027599	           -0.015028	          -10.071045	           11.770716	           -5.960481	           -0.026300	            0.005916	           -0.565255	            0.008535	           -0.009975	            0.005051
            3.754000	            0.321389	           -0.180990	            0.181854	           -0.233013	            0.005581	           -0.255695	           -0.082765	            0.027868	            0.014014	           -9.884269	           11.955206	           -5.866048	           -0.031016	            0.005929	           -0.573611	            0.070932	           -0.085794	            0.042096
            3.754500	            0.137822	           -0.360898	            0.089825	           -0.233013	            0.005581	           -0.255695	           -0.059727	            0.147466	            0.119446	          -10.161381	           10.849301	           -5.869871	           -0.006659	            0.005956	           -0.556608	           -0.032107	            0.034281	           -0.018547
            3.755000	           -0.045175	           -0.541789	            0.227074	           -0.233013	            0.005581	           -0.255695	           -0.047011	            0.184846	           -0.001026	           -9.977948	           11.954700	           -5.819080	           -0.024546	            0.005953	           -0.573799	            0.068704	           -0.082315	            0.040068
            3.755500	            0.001483	           -1.264022	            0.499004	           -0.233013	            0.005581	           -0.255695	            0.167124	           -0.037085	            0.037067	           -9.929790	           11.586740	           -5.867342	           -0.017789	            0.005949	           -0.565895	            0.064675	           -0.075467	            0.038215
            3.756000	           -0.091084	           -0.181266	            0.228734	           -0.233013	            0.005581	           -0.255695	            0.084212	           -0.120182	           -0.004627	          -10.024154	           11.770550	           -5.866645	           -0.020440	            0.005945	           -0.567530	            0.019364	           -0.022738	            0.011333
            3.756500	            0.046850	            0.719105	            0.461537	           -0.233013	            0.005581	           -0.255695	           -0.019898	           -0.111048	            0.039099	           -9.978695	           12.139518	           -6.006135	           -0.034838	            0.005928	           -0.577364	            0.054347	           -0.066116	            0.032711
            3.757000	            0.137724	            0.179899	            0.092143	           -0.233013	            0.005581	           -0.255695	            0.127443	           -0.018476	            0.024260	           -9.696226	           11.771902	           -5.913713	           -0.022078	            0.005921	           -0.562351	            0.080687	           -0.097960	            0.049211
            3.757500	           -0.137790	            0.180632	           -0.090598	           -0.233013	            0.005581	           -0.255695	            0.210251	            0.120138	           -0.005877	           -9.836111	           11.587246	           -5.914310	           -0.022484	            0.005924	           -0.563611	            0.091271	           -0.107520	            0.054880
            3.758000	            0.091800	           -0.000179	            0.045628	           -0.233013	            0.005581	           -0.255695	            0.148059	            0.175939	           -0.052098	          -10.212965	           12.138840	           -6.052964	           -0.033142	            0.005924	           -0.574443	            0.052270	           -0.062126	            0.030979
            3.758500	           -0.136891	           -1.623007	            0.130952	           -0.233013	            0.005581	           -0.255695	            0.070142	            0.083307	           -0.043220	          -10.024860	           11.955033	           -5.959844	           -0.028807	            0.005926	           -0.570488	            0.089628	           -0.106885	            0.053284
            3.759000	           -0.182785	           -0.721885	            0.180787	           -0.233013	            0.005581	           -0.255695	            0.142813	           -0.073998	           -0.008465	          -10.073642	           12.506807	           -5.817069	           -0.038314	            0.005933	           -0.582061	            0.071245	           -0.088453	            0.041141
            3.759500	            0.000704	           -1.983512	            0.129065	           -0.233013	            0.005581	           -0.255695	            0.108210	           -0.157354	            0.055522	           -9.974605	           11.033791	           -5.775437	           -0.009928	            0.005951	           -0.558420	            0.055616	           -0.061522	            0.032203
            3.760000	            0.367607	           -0.361837	            0.318535	           -0.233013	            0.005581	           -0.255695	            0.080468	           -0.129212	            0.014897	          -10.072436	           12.139515	           -6.099952	           -0.025788	            0.005962	           -0.577539	            0.089998	           -0.108467	            0.054503
            3.760500	            0.000701	           -0.722046	            0.226188	           -0.233013	            0.005581	           -0.255695	            0.122137	            0.009194	            0.018560	          -10.028163	           12.875608	           -5.909631	           -0.044654	            0.005931	           -0.588025	            0.087109	           -0.111843	            0.051333
            3.761000	            0.230386	           -0.182187	            0.457217	           -0.233013	            0.005581	           -0.255695	           -0.038257	            0.138846	           -0.008328	          -10.071648	           11.954362	           -5.819040	           -0.020663	            0.005954	           -0.570290	            0.054303	           -0.064454	            0.031375
